<svg xmlns="http://www.w3.org/2000/svg" width="28" height="24" viewBox="0 0 28 24"><defs><clipPath id="zhz6a"><path d="M0 .1h7.13v23.591H0z"/></clipPath><clipPath id="zhz6b"><path d="M20.04.43h7.575v23.83H20.04z"/></clipPath></defs><g><g><g><path fill="#fa6400" d="M17.032 12.061a3.222 3.222 0 0 1-3.221 3.221 3.217 3.217 0 0 1-3.22-3.22 3.217 3.217 0 0 1 3.22-3.222 3.217 3.217 0 0 1 3.22 3.221"/></g><g><path fill="#424242" d="M11.146 16.339c-.809-.33-1.51-.95-1.992-1.717a4.838 4.838 0 0 1-.734-2.604 4.805 4.805 0 0 1 .772-2.593c.494-.759 1.206-1.368 2.02-1.685-.659.568-1.186 1.225-1.543 1.958a5.366 5.366 0 0 0-.036 4.66c.345.738.863 1.404 1.513 1.98"/></g><g><path fill="#424242" d="M16.47 7.78c.844.353 1.57 1.017 2.055 1.834a4.86 4.86 0 0 1 .662 2.756l-.004.09-.01.09-.021.179c-.01.12-.037.238-.06.356-.012.059-.021.118-.037.176l-.049.174-.049.173-.061.17a4.81 4.81 0 0 1-.684 1.254c-.574.756-1.373 1.333-2.252 1.586.75-.518 1.364-1.157 1.797-1.894a5.305 5.305 0 0 0 .733-2.394 5.265 5.265 0 0 0-.45-2.464c-.346-.781-.885-1.485-1.57-2.086"/></g><g><path fill="#616161" d="M17.612 5.94c1.15.575 2.128 1.526 2.778 2.673.326.573.57 1.197.721 1.842a7.08 7.08 0 0 1 .178 1.978c-.002.167-.026.331-.043.497-.01.082-.017.165-.03.247l-.046.245-.048.245-.064.24-.064.24c-.023.08-.054.158-.08.237a6.977 6.977 0 0 1-.902 1.76c-.76 1.078-1.83 1.927-3.032 2.383a8.004 8.004 0 0 0 2.65-2.634 7.394 7.394 0 0 0 .356-7.069 8.012 8.012 0 0 0-2.374-2.884"/></g><g><path fill="#616161" d="M10.006 18.178c-1.115-.552-2.069-1.46-2.717-2.558a6.937 6.937 0 0 1-.737-1.766c-.038-.156-.083-.31-.106-.47-.026-.158-.062-.315-.075-.476a7.393 7.393 0 0 1-.05-.961l.008-.241c.004-.08.004-.16.015-.24l.025-.24.012-.12c.004-.04.009-.08.017-.12.03-.157.055-.316.089-.473.04-.156.076-.312.12-.466a6.903 6.903 0 0 1 .79-1.744c.682-1.078 1.664-1.957 2.797-2.473a8.067 8.067 0 0 0-2.402 2.704 7.389 7.389 0 0 0-.89 3.421 7.43 7.43 0 0 0 .787 3.446 8.062 8.062 0 0 0 2.317 2.777"/></g><g><path fill="#7a7a7a" d="M8.858 20.016a8.875 8.875 0 0 1-3.441-3.399 9.13 9.13 0 0 1-.924-2.286 9.281 9.281 0 0 1-.282-2.455l.012-.31.005-.154c.004-.052.01-.103.015-.155l.033-.308c.011-.103.018-.206.04-.307l.054-.306.027-.152.014-.076.018-.076.075-.3c.027-.1.047-.202.08-.3a9.023 9.023 0 0 1 1.011-2.25A8.866 8.866 0 0 1 9.167 3.92a10.07 10.07 0 0 0-3.26 3.449 9.62 9.62 0 0 0-.899 2.184c-.05.19-.09.383-.137.574l-.017.072-.012.073-.024.146-.048.291c-.02.097-.026.195-.036.293l-.03.293c-.004.05-.01.098-.013.147l-.005.148-.01.295a9.527 9.527 0 0 0 1.059 4.56 10.064 10.064 0 0 0 3.123 3.571"/></g><g><path fill="#7a7a7a" d="M18.755 4.1a8.923 8.923 0 0 1 3.501 3.513c.413.737.712 1.537.908 2.361.057.205.084.415.122.624l.027.157c.01.052.012.105.019.157l.033.317.016.158c.006.053.005.106.008.159l.011.318c.004.105.009.211.005.317-.003.107-.001.213-.009.318a9.16 9.16 0 0 1-1.583 4.762c-.948 1.397-2.287 2.519-3.813 3.174a10.028 10.028 0 0 0 3.509-3.372 9.493 9.493 0 0 0 1.226-6.994 9.497 9.497 0 0 0-.799-2.287A10.044 10.044 0 0 0 18.755 4.1"/></g><g><path fill="#8c8c8c" d="M19.897 2.26a11.218 11.218 0 0 1 4.227 4.353 11.34 11.34 0 0 1 1.092 2.88c.068.25.103.505.147.76.05.253.067.51.095.767.033.256.033.514.044.772.014.258.007.516-.001.774a11.371 11.371 0 0 1-1.888 5.812 11.192 11.192 0 0 1-4.593 3.965 12.044 12.044 0 0 0 4.364-4.114 11.62 11.62 0 0 0 1.768-5.678 11.685 11.685 0 0 0-1.268-5.812c-.916-1.79-2.3-3.34-3.987-4.479"/></g><g><path fill="#8c8c8c" d="M7.722 21.854a11.18 11.18 0 0 1-4.167-4.24 11.329 11.329 0 0 1-1.109-2.806 11.947 11.947 0 0 1-.335-3.003 11.336 11.336 0 0 1 1.692-5.743A11.165 11.165 0 0 1 8.154 2.01a12.058 12.058 0 0 0-4.117 4.192 11.594 11.594 0 0 0-1.578 5.61 11.696 11.696 0 0 0 1.335 5.673 12.066 12.066 0 0 0 3.928 4.369"/></g><g><g/><g clip-path="url(#zhz6a)"><path fill="#c3c3c3" d="M6.577 23.691l-.378-.234c-.123-.082-.248-.162-.37-.246-.121-.086-.243-.171-.362-.26-.117-.09-.237-.178-.352-.271a13.83 13.83 0 0 1-1.32-1.197 13.779 13.779 0 0 1-2.113-2.869 13.43 13.43 0 0 1-1.297-3.326 13.768 13.768 0 0 1 .166-7.084 13.45 13.45 0 0 1 1.451-3.261 13.791 13.791 0 0 1 2.245-2.767c.434-.408.893-.787 1.375-1.134l.365-.255.373-.243.381-.228L7.13.1l-.38.23-.371.244-.364.253-.357.264c-.468.36-.913.75-1.331 1.167a13.744 13.744 0 0 0-4.09 9.483 13.738 13.738 0 0 0 3.64 9.664c.399.435.825.846 1.276 1.227.113.096.23.187.344.28.115.093.235.18.352.27.119.089.24.174.36.26z"/></g></g><g><g/><g clip-path="url(#zhz6b)"><path fill="#c3c3c3" d="M21.039.43l.384.238c.126.084.253.166.377.252.122.088.247.173.367.265.12.092.242.18.358.277.472.378.92.787 1.339 1.223a13.807 13.807 0 0 1 2.13 2.934 13.41 13.41 0 0 1 1.28 3.4 13.87 13.87 0 0 1 .33 3.622 13.631 13.631 0 0 1-.632 3.581 13.488 13.488 0 0 1-1.561 3.28 13.814 13.814 0 0 1-2.367 2.747c-.454.4-.934.77-1.436 1.108-.127.082-.252.166-.38.246-.13.078-.258.157-.388.233l-.397.22-.403.204.395-.22.386-.234.38-.244c.125-.083.248-.17.372-.256.49-.35.955-.731 1.394-1.141a13.723 13.723 0 0 0 2.293-2.76 13.729 13.729 0 0 0 2.112-6.774 13.732 13.732 0 0 0-3.591-9.869 13.766 13.766 0 0 0-1.295-1.253c-.113-.099-.232-.19-.348-.286-.117-.095-.24-.183-.358-.275-.12-.09-.244-.177-.366-.265z"/></g></g></g></g></svg>