<svg xmlns="http://www.w3.org/2000/svg" width="18" height="24" viewBox="0 0 18 24"><defs><clipPath id="6n9ca"><path d="M0 .05h17.237v23.931H0z"/></clipPath></defs><g><g><g><g/><g clip-path="url(#6n9ca)"><path fill="#474747" d="M5.132 23.981a.378.378 0 0 1-.086-.01c-.052-.012-1.284-.308-2.524-1.278-1.15-.9-2.522-2.57-2.522-5.412 0-2.925 1.741-4.673 3.425-6.363 1.181-1.185 2.296-2.304 2.711-3.755C7.12 3.719 5.24.658 5.221.628a.377.377 0 0 1 .437-.56C5.705.085 6.83.458 8.145 1.41c1.215.88 2.825 2.445 3.596 4.897.823 2.618-.1 4.067-.774 5.124-.576.904-.924 1.45-.31 2.4.252.392.859.716 1.734.34 1.008-.432 1.834-1.659 1.406-3.423a.377.377 0 0 1 .652-.336c.033.037.81.94 1.54 2.352.679 1.313 1.44 3.33 1.205 5.481-.237 2.184-1.43 4.089-3.542 5.662a.377.377 0 1 1-.451-.606c1.938-1.442 3.029-3.17 3.243-5.137.272-2.508-.934-4.87-1.785-6.184-.104 1.443-.97 2.456-1.97 2.885-1.06.455-2.132.204-2.667-.625-.876-1.357-.274-2.301.308-3.214.66-1.036 1.408-2.21.69-4.493-.566-1.802-1.675-3.315-3.296-4.497a10.264 10.264 0 0 0-1.374-.844c.543 1.257 1.25 3.595.512 6.178-.468 1.638-1.706 2.88-2.902 4.08C2.384 13.033.755 14.669.755 17.28c0 2.028.743 3.643 2.21 4.8a6.533 6.533 0 0 0 2.254 1.157.378.378 0 0 1-.087.744"/></g></g><g><path fill="#474747" d="M10.473 23.982a.377.377 0 0 1-.272-.638c1.02-1.064 1.367-2.22 1.002-3.345-.401-1.236-1.585-2.231-2.73-2.687.17.47.226.906.17 1.318-.09.674-.469 1.27-1.158 1.825-.46.37-.688.767-.68 1.18.018.886 1.048 1.659 1.058 1.666a.378.378 0 0 1-.447.608c-.055-.04-1.338-.996-1.366-2.255-.014-.661.31-1.262.962-1.787 1.037-.834 1.164-1.692.439-2.962a.377.377 0 0 1 .394-.559c1.527.276 3.474 1.568 4.075 3.42.319.98.373 2.487-1.174 4.1a.376.376 0 0 1-.273.116"/></g></g></g></svg>