<svg xmlns="http://www.w3.org/2000/svg" width="155" height="37" viewBox="0 0 155 37"><defs><clipPath id="nvwwa"><path d="M11.902 15.88a2.464 2.464 0 0 1 0 4.925 2.462 2.462 0 0 1 0-4.925zM6.26 22.394a1.59 1.59 0 0 0 1.591 1.591h4.05a5.65 5.65 0 0 0 5.644-5.642 5.65 5.65 0 0 0-5.643-5.643 5.649 5.649 0 0 0-5.642 5.643z"/></clipPath><clipPath id="nvwwb"><path d="M12.7.425V2.54c0 .446.19.639.437.659 7.399.6 13.305 6.505 13.904 13.903.02.246.218.437.465.437h2.304a.433.433 0 0 0 .43-.457C29.617 7.938 22.301.622 13.155.001a.429.429 0 0 0-.456.424z"/></clipPath><clipPath id="nvwwc"><path d="M12.7 6.804v2.112c0 .434.178.622.413.654a8.82 8.82 0 0 1 7.513 7.513.468.468 0 0 0 .46.413h2.3a.43.43 0 0 0 .428-.468c-.59-5.601-5.045-10.056-10.646-10.646a.427.427 0 0 0-.468.421z"/></clipPath><clipPath id="nvwwd"><path d="M12.7 6.804v2.112c0 .434.178.622.413.654a8.82 8.82 0 0 1 7.513 7.513.468.468 0 0 0 .46.413h2.3a.43.43 0 0 0 .428-.468c-.59-5.601-5.045-10.056-10.646-10.646a.427.427 0 0 0-.468.421z"/></clipPath></defs><g><g><g><path fill="#0d2f48" d="M4.262 36.757H2.36a1.958 1.958 0 0 1-1.946-1.9L.042 18.942a11.81 11.81 0 0 1-.012-.524C.03 11.886 5.346 6.57 11.88 6.57c6.533 0 11.849 5.316 11.849 11.85 0 3.154-1.249 6.131-3.515 8.382-2.252 2.235-5.212 3.467-8.335 3.467-.554 0-1.107-.04-1.654-.119a.532.532 0 0 0-.604.465l-.18 1.538zM3.79 33.88a2.868 2.868 0 0 0 2.849-2.533l.326-2.775a1.85 1.85 0 0 1 2.377-1.557c.824.25 1.679.376 2.538.376 2.358 0 4.598-.935 6.307-2.631 1.719-1.707 2.665-3.958 2.665-6.34 0-4.948-4.025-8.972-8.972-8.972-4.947 0-8.971 4.024-8.971 8.971 0 .136.003.274.009.409l.001.032.34 14.5z"/></g><g><g/><g clip-path="url(#nvwwa)"><path fill="#0d2f48" d="M5.98 24.26h11.85V12.41H5.98z"/></g></g><g><g/><g clip-path="url(#nvwwb)"><path fill="#f8ca0f" d="M12.41 17.823h18.105V-.28H12.41z"/></g></g><g><g/><g clip-path="url(#nvwwc)"><path fill="#f8ca0f" d="M12.41 17.77h11.68V6.09H12.41z"/></g></g><g><path fill="#fff" d="M23.38 19.492h-2.3a2.484 2.484 0 0 1-2.445-2.143 6.818 6.818 0 0 0-5.802-5.801 2.408 2.408 0 0 1-1.661-1.01c-.32-.457-.482-1.004-.482-1.63V6.798a2.43 2.43 0 0 1 2.68-2.414c3.164.334 6.15 1.761 8.41 4.02a14.01 14.01 0 0 1 4.019 8.408c.072.68-.151 1.362-.61 1.873a2.437 2.437 0 0 1-1.81.808"/></g><g><g/><g clip-path="url(#nvwwd)"><path fill="#f8ca0f" d="M12.41 17.77h11.68V6.09H12.41z"/></g></g></g><g><g><text dominant-baseline="text-before-edge" style="font-kerning:normal" fill="#0d2f48" font-family="SFProText-Regular" font-size="24" letter-spacing="-.58" transform="translate(43 5)"><tspan style="font-kerning:normal">Pest Radar</tspan></text></g></g></g></svg>