<svg xmlns="http://www.w3.org/2000/svg" width="16" height="16" viewBox="0 0 16 16"><defs><clipPath id="ufkea"><path d="M0 .01h15.886v15.808H0z"/></clipPath></defs><g><g><g><g/><g clip-path="url(#ufkea)"><path fill="#fff" d="M10.298 15.72c-.575-.121-2.178-.832-3.939-2.033-1.544-1.054-3.674-2.809-5.055-5.185C.7 7.465.303 6.437.119 5.446a6.445 6.445 0 0 1-.008-2.42c.119-.61.339-1.192.636-1.684.235-.389.512-.711.76-.886C2.095.044 2.985.001 3.464.011c.25.006.483.144.609.36l1.9 3.266a.72.72 0 0 1-.128.89l-1.599 1.52a.697.697 0 0 0-.181.72c.394 1.192 1.222 2.289 2.46 3.26.95.747 1.907 1.242 2.635 1.59.124.06.27.032.364-.068.405-.43.732-.768.998-1.03.187-.185.342-.33.462-.433.18-.154.293-.224.401-.245.142-.047.342-.025.941.18a34.522 34.522 0 0 1 2.705 1.106c.191.089.344.164.457.224.179.095.268.154.32.255.14.264.058.776.016.984-.07.354-.234.914-.613 1.571-.43.746-1.261 1.269-2.405 1.513-.49.104-.976.144-1.407.144a5.59 5.59 0 0 1-1.1-.099zM1.88.988c-.134.094-.357.325-.577.689-.18.298-.422.796-.555 1.472a5.8 5.8 0 0 0 .01 2.177c.17.918.543 1.876 1.107 2.848 1.32 2.271 3.372 3.959 4.86 4.975.97.661 1.809 1.114 2.341 1.377.699.346 1.172.515 1.366.556.472.099 1.342.146 2.239-.045.668-.143 1.554-.467 1.977-1.202a4.659 4.659 0 0 0 .526-1.312 2.1 2.1 0 0 0 .06-.572c-.22-.122-.878-.43-1.774-.8-1.223-.502-1.77-.661-1.913-.68a.598.598 0 0 1-.007.002c-.087.056-.41.317-1.543 1.52a.96.96 0 0 1-1.117.21c-.758-.363-1.757-.88-2.757-1.665-1.34-1.052-2.24-2.252-2.675-3.567a1.35 1.35 0 0 1 .35-1.396l1.6-1.521a.073.073 0 0 0 .014-.09L3.51.697A.073.073 0 0 0 3.449.66h-.102C2.98.66 2.29.7 1.88.988z"/></g></g><g><path fill="#fff" d="M8.33 4.172a4.05 4.05 0 0 1 .648.033l-.111-.015c.343.047.679.138.998.271l-.1-.042c.312.132.605.303.874.51l-.085-.066a4.036 4.036 0 0 1 .647.627c.206.266.377.558.509.868l-.043-.1c.136.323.229.662.276 1.01l-.015-.112c.02.156.032.314.035.472.001.109.045.22.123.297a.427.427 0 0 0 .297.123c.224-.01.423-.184.42-.42a4.337 4.337 0 0 0-.807-2.47 4.59 4.59 0 0 0-1.033-1.03 4.33 4.33 0 0 0-2.633-.797.438.438 0 0 0-.297.124.427.427 0 0 0-.123.297c.005.108.04.221.123.297.081.074.185.126.297.123"/></g><g><path fill="#fff" d="M7.63 2.151c.47-.037.943-.024 1.41.039l-.111-.015c.572.078 1.133.23 1.666.454l-.1-.042a6.61 6.61 0 0 1 1.46.853l-.085-.065a6.7 6.7 0 0 1 1.19 1.189l-.065-.085c.344.445.63.933.849 1.45l-.042-.1c.226.537.38 1.103.459 1.68l-.015-.112c.025.187.042.374.052.561a.442.442 0 0 0 .123.297.427.427 0 0 0 .297.123.421.421 0 0 0 .42-.42 7.005 7.005 0 0 0-.876-3.081 7.2 7.2 0 0 0-.627-.933A6.974 6.974 0 0 0 7.63 1.311a.449.449 0 0 0-.297.123.427.427 0 0 0-.123.297c.005.109.04.221.123.297.079.072.187.132.297.123"/></g></g></g></svg>