<svg xmlns="http://www.w3.org/2000/svg" width="12" height="23" viewBox="0 0 12 23"><defs><clipPath id="88vea"><path d="M0 .11h11.226v22.592H0z"/></clipPath></defs><g><g><g><g/><g clip-path="url(#88vea)"><path fill="#14333f" d="M1.627 21.183c.73.738 1.64 1.254 2.622 1.503a.38.38 0 1 0 .188-.738 4.864 4.864 0 0 1-2.268-1.3 4.854 4.854 0 0 1-1.395-3.744 4.879 4.879 0 0 1 1.74-3.388 1.81 1.81 0 0 0 .653-1.395V3.316a2.447 2.447 0 0 1 3.395-2.252 2.46 2.46 0 0 1 1.076.887c.265.39.418.86.418 1.365v8.805c0 .269.059.53.167.766.11.237.27.449.476.618a4.845 4.845 0 0 1 .182 7.323 4.82 4.82 0 0 1-2.093 1.124.38.38 0 1 0 .185.739 5.604 5.604 0 0 0 3.044-1.971 5.595 5.595 0 0 0 1.206-3.474 5.61 5.61 0 0 0-.534-2.392 5.625 5.625 0 0 0-1.506-1.935h.001a.989.989 0 0 1-.27-.35 1.061 1.061 0 0 1-.097-.448V9.848h1.948a.381.381 0 1 0 0-.761H8.817v-.741h2.027a.38.38 0 1 0 0-.76H8.817v-.741h2.027a.38.38 0 1 0 0-.76H8.817v-.741h2.027a.38.38 0 1 0 0-.761H8.817V3.316A3.2 3.2 0 0 0 7.404.66a3.195 3.195 0 0 0-3.04-.296 3.221 3.221 0 0 0-1.41 1.162 3.19 3.19 0 0 0-.549 1.791v8.805a1.044 1.044 0 0 1-.379.809 5.622 5.622 0 0 0-2.012 3.92 5.62 5.62 0 0 0 1.612 4.333"/></g></g><g><path fill="#14333f" d="M4.452 18.962c.365.248.808.393 1.282.393a.38.38 0 0 0 0-.761 1.527 1.527 0 0 1-1.272-.678 1.522 1.522 0 0 1-.26-.856.38.38 0 0 0-.762 0c0 .316.064.619.18.893.175.412.465.761.832 1.01"/></g><g><path fill="#14333f" d="M2.917 16.296a2.865 2.865 0 0 1 1.922-1.816.381.381 0 0 0 .277-.367V3.591a.49.49 0 0 1 .147-.353.483.483 0 0 1 .353-.147.498.498 0 0 1 .499.5v10.522c0 .171.115.321.278.367a2.86 2.86 0 0 1 1.854 3.861 2.873 2.873 0 0 1-1.036 1.257 2.837 2.837 0 0 1-1.596.488h-.04a2.817 2.817 0 0 1-1.074-.229 2.889 2.889 0 0 1-1.232-1.007 2.828 2.828 0 0 1-.507-1.54v-.001-.08zm-.608 2.386c.28.626.73 1.16 1.293 1.539.563.38 1.24.606 1.962.616h.051a3.612 3.612 0 0 0 2.999-1.594c.39-.577.618-1.274.618-2.022a3.625 3.625 0 0 0-2.356-3.39V3.592a1.258 1.258 0 0 0-1.26-1.261 1.254 1.254 0 0 0-1.16.77c-.066.151-.101.317-.101.49v10.241a3.624 3.624 0 0 0-2.157 2.208 3.602 3.602 0 0 0-.196 1.283z"/></g></g></g></svg>