<svg xmlns="http://www.w3.org/2000/svg" width="24" height="24" viewBox="0 0 24 24"><defs><clipPath id="osioa"><path d="M5.73.14h12.333v5.638H5.73z"/></clipPath><clipPath id="osiob"><path d="M0 10.58h4.104v13.39H0z"/></clipPath></defs><g><g><g><path fill="#14333f" d="M14.822 19.273a4.121 4.121 0 0 1-2.927 1.212 4.124 4.124 0 0 1-2.928-1.212 4.125 4.125 0 0 1-1.213-2.928c0-.257.06-.597.179-.98.203-.675.57-1.487 1.008-2.316.656-1.244 1.467-2.53 2.113-3.502.323-.486.605-.892.805-1.179.013-.017.023-.033.036-.049.42.597 1.245 1.798 2.049 3.135.539.896 1.068 1.854 1.459 2.726.195.436.355.85.464 1.22.111.37.168.696.167.945zm.65-6.553c-.675-1.278-1.496-2.58-2.15-3.562-.654-.984-1.14-1.65-1.143-1.653a.351.351 0 0 0-.57 0 54.314 54.314 0 0 0-2.262 3.41c-.566.932-1.133 1.943-1.564 2.89-.215.472-.397.928-.525 1.355-.129.427-.208.822-.208 1.185a4.83 4.83 0 0 0 1.419 3.427 4.835 4.835 0 0 0 3.426 1.418c1.336 0 2.55-.543 3.425-1.418a4.835 4.835 0 0 0 1.419-3.427c-.001-.363-.08-.758-.208-1.185z"/></g><g><g/><g clip-path="url(#osioa)"><path fill="#14333f" d="M14.03 5.072H9.673a.42.42 0 0 1-.421-.419v-1.65h5.197v1.65a.417.417 0 0 1-.421.42zM9.913.845a.351.351 0 0 0 .351-.353.351.351 0 0 0-.351-.352H6.081a.35.35 0 0 0-.351.352v.9a1.56 1.56 0 0 0 1.565 1.566h1.254v1.695a1.12 1.12 0 0 0 1.125 1.125h4.355a1.122 1.122 0 0 0 1.126-1.125V2.958h1.342a1.566 1.566 0 0 0 1.566-1.565v-.9a.353.353 0 0 0-.354-.353h-4.272a.353.353 0 0 0 0 .705h3.92v.548a.862.862 0 0 1-.86.86H7.295a.86.86 0 0 1-.86-.86V.845z"/></g></g><g><path fill="#14333f" d="M21.546 16.834c0-1.912-.94-3.7-2.515-4.784a.392.392 0 0 0-.55.102.4.4 0 0 0-.065.297c.02.103.08.194.166.255a4.948 4.948 0 0 1 2.172 4.13 4.95 4.95 0 0 1-2.172 4.13.398.398 0 0 0-.102.551.397.397 0 0 0 .551.101 5.805 5.805 0 0 0 2.515-4.782"/></g><g><path fill="#14333f" d="M20.312 10.2a.396.396 0 1 0-.45.652A7.156 7.156 0 0 1 23 16.825a7.152 7.152 0 0 1-3.14 5.97.398.398 0 0 0 .226.725c.08 0 .158-.025.225-.07a8.042 8.042 0 0 0 0-13.25"/></g><g><path fill="#14333f" d="M5.204 21.404a4.949 4.949 0 0 1-2.17-4.13 4.95 4.95 0 0 1 2.17-4.131.395.395 0 0 0 .103-.55.398.398 0 0 0-.552-.104 5.805 5.805 0 0 0 0 9.567.398.398 0 0 0 .616-.397.395.395 0 0 0-.167-.255"/></g><g><g/><g clip-path="url(#osiob)"><path fill="#14333f" d="M3.931 23.245a7.154 7.154 0 0 1-3.137-5.97c0-2.423 1.143-4.6 3.137-5.973a.395.395 0 1 0-.449-.653 8.043 8.043 0 0 0 0 13.25.399.399 0 0 0 .552-.102.397.397 0 0 0-.103-.552"/></g></g></g></g></svg>